Patient4_TMGait_0pt3_01_left_11_GRF.mot
version=1
nRows=58
nColumns=19
inDegrees=no
endheader
time	F1x	F1y	F1z	M1x	M1y	M1z	F2x	F2y	F2z	M2x	M2y	M2z	EC1x	EC1y	EC1z	EC2x	EC2y	EC2z
20.25	-2.2841	10.7114	3.358	-3.4731	-5.013	7.3705	-13.6982	714.622	-37.7838	262.9119	37.9941	611.7134	-0.0592	0.0182	-0.0073	-0.0462	0.0165	0.9585
20.2698	-1.5305	7.8369	2.3341	-2.5936	-3.4549	5.5693	-13.0737	718.5786	-39.2849	263.4264	39.021	613.7388	-0.0592	0.0182	-0.0073	-0.0462	0.0165	0.9585
20.2896	-0.88463	5.4025	1.4432	-1.8444	-2.1036	4.0677	-12.5611	725.427	-41.0686	265.0707	40.2418	617.7588	-0.0592	0.0182	-0.0073	-0.0462	0.0165	0.9585
20.3094	-0.39076	3.5549	0.74785	-1.2728	-1.0564	2.9538	-12.1488	736.1814	-43.0245	268.3175	41.5729	624.6643	-0.0592	0.0182	-0.0073	-0.0462	0.0165	0.9585
20.3291	-0.051753	2.287	0.25275	-0.87697	-0.32214	2.2132	-11.758	751.4438	-45.0032	273.4589	42.8869	635.0149	-0.0592	0.0182	-0.0073	-0.0462	0.0165	0.9585
20.3489	0.15104	1.5062	-0.068605	-0.62859	0.13915	1.7774	-11.2654	770.9722	-46.8561	280.4431	44.0383	648.6493	-0.0592	0.0182	-0.0073	-0.0462	0.0165	0.9585
20.3687	0.24513	1.0799	-0.25643	-0.48687	0.38836	1.5545	-10.5489	793.4802	-48.451	288.8044	44.8861	664.5183	-0.0592	0.0182	-0.0073	-0.0462	0.0165	0.9585
20.3885	0.25586	0.86133	-0.35007	-0.40745	0.48844	1.4424	-9.5094	816.8474	-49.6776	297.7439	45.3059	680.8656	-0.0592	0.0182	-0.0073	-0.0462	0.0165	0.9585
20.4083	0.20185	0.71046	-0.38207	-0.346	0.49076	1.3424	-8.0752	838.5808	-50.4445	306.305	45.1871	695.6214	-0.0592	0.0182	-0.0073	-0.0462	0.0165	0.9585
20.4281	0.096915	0.50223	-0.38065	-0.26046	0.43497	1.1572	-6.2038	856.2354	-50.6868	313.5296	44.4451	706.7674	-0.0592	0.0182	-0.0073	-0.0462	0.0165	0.9585
20.4479	-0.04491	0.13224	-0.36935	-0.11492	0.35411	0.79806	-3.8931	867.6795	-50.3871	318.5589	43.0494	712.571	-0.0592	0.0182	-0.0073	-0.0462	0.0165	0.9585
20.4676	-0.20548	-0.47863	-0.36384	0.11762	0.27407	0.19332	-1.1971	871.3229	-49.5879	320.7279	41.0418	711.7712	-0.0592	0.0182	-0.0073	-0.0462	0.0165	0.9585
20.4874	-0.35681	-1.371	-0.3737	0.45098	0.21458	-0.69131	1.7958	866.3673	-48.3713	319.6745	38.5176	703.7802	-0.0592	0.0182	-0.0073	-0.0462	0.0165	0.9585
20.5072	-0.45893	-2.5214	-0.40179	0.87695	0.19147	-1.8348	4.9975	853.0232	-46.8331	315.4313	35.5959	688.8443	-0.0592	0.0182	-0.0073	-0.0462	0.0165	0.9585
20.527	-0.45684	-3.8067	-0.44189	1.3486	0.21969	-3.1232	8.3344	832.519	-45.0729	308.4328	32.4024	668.0268	-0.0592	0.0182	-0.0073	-0.0462	0.0165	0.9585
20.5468	-0.27582	-4.963	-0.48386	1.7662	0.31703	-4.3085	11.7516	806.874	-43.1896	299.4282	29.0607	643.0063	-0.0592	0.0182	-0.0073	-0.0462	0.0165	0.9585
20.5666	0.178	-5.535	-0.51105	1.9631	0.50234	-4.9665	15.2197	778.5395	-41.2858	289.3409	25.6916	615.7846	-0.0592	0.0182	-0.0073	-0.0462	0.0165	0.9585
20.5864	1.0116	-4.84	-0.49837	1.6912	0.79037	-4.4604	18.7215	750.0123	-39.4517	279.1176	22.4046	588.3824	-0.0592	0.0182	-0.0073	-0.0462	0.0165	0.9585
20.6061	2.3261	-1.9525	-0.41148	0.61495	1.1873	-1.9233	22.2095	723.4796	-37.7526	269.5901	19.2965	562.5735	-0.0592	0.0182	-0.0073	-0.0462	0.0165	0.9585
20.6259	4.1827	4.2687	-0.20644	-1.6768	1.6766	3.7239	25.5771	700.534	-36.2354	261.3659	16.4603	539.6684	-0.0592	0.0182	-0.0073	-0.0462	0.0165	0.9585
20.6457	6.555	15.0637	0.17015	-5.6271	2.1965	13.6633	28.6676	681.963	-34.93	254.7447	13.984	520.3505	-0.0592	0.0182	-0.0073	-0.0462	0.0165	0.9585
20.6655	9.2615	31.5283	0.77158	-11.6229	2.6279	28.9478	31.3338	667.6875	-33.8389	249.695	11.9235	504.6316	-0.0592	0.0182	-0.0073	-0.0462	0.0165	0.9585
20.6853	11.8673	54.2348	1.6415	-19.8574	2.7689	50.1633	33.4502	656.798	-32.9279	245.8613	10.2911	491.8963	-0.0592	0.0182	-0.0073	-0.0462	0.0165	0.9585
20.7051	13.5461	82.7834	2.8379	-30.1691	2.2649	77.0127	34.8807	647.6526	-32.1445	242.5987	9.0841	481.0014	-0.0592	0.0182	-0.0073	-0.0462	0.0165	0.9585
20.7249	13.4617	115.7712	4.4511	-42.0285	0.73319	108.2749	35.4848	638.2053	-31.4509	239.0995	8.3133	470.5248	-0.0592	0.0182	-0.0073	-0.0462	0.0165	0.9585
20.7446	11.3957	151.3232	6.5659	-54.7346	-1.9793	142.2492	35.1709	626.508	-30.837	234.5939	7.9933	459.1032	-0.0592	0.0182	-0.0073	-0.0462	0.0165	0.9585
20.7644	7.5762	187.652	9.1491	-67.6399	-5.7542	177.238	33.9564	611.1325	-30.3019	228.5246	8.1063	445.7056	-0.0592	0.0182	-0.0073	-0.0462	0.0165	0.9585
20.7842	2.4574	223.9934	11.9573	-80.4941	-10.187	212.4573	31.9918	591.4531	-29.8235	220.666	8.5693	429.8209	-0.0592	0.0182	-0.0073	-0.0462	0.0165	0.9585
20.804	-3.4541	260.7055	14.7274	-93.457	-14.8421	248.1488	29.5156	567.5965	-29.3508	211.1133	9.2453	411.4269	-0.0592	0.0182	-0.0073	-0.0462	0.0165	0.9585
20.8238	-9.5686	298.12	17.3044	-106.6711	-19.3697	284.4904	26.7807	540.0662	-28.7922	200.1365	9.9632	390.7538	-0.0592	0.0182	-0.0073	-0.0462	0.0165	0.9585
20.8436	-15.2101	335.6217	19.5917	-119.9241	-23.45	320.7288	23.9927	509.4265	-28.0286	188.0411	10.5546	368.0881	-0.0592	0.0182	-0.0073	-0.0462	0.0165	0.9585
20.8634	-19.7205	371.6263	21.5843	-132.6382	-26.8568	355.2023	21.2577	476.2975	-26.9522	175.1432	10.9041	343.7877	-0.0592	0.0182	-0.0073	-0.0462	0.0165	0.9585
20.8831	-22.6675	404.2723	23.3313	-144.1254	-29.4949	386.0721	18.5987	441.5937	-25.5047	161.8368	10.9631	318.4482	-0.0592	0.0182	-0.0073	-0.0462	0.0165	0.9585
20.9029	-23.963	432.1822	24.8418	-153.8718	-31.356	412.085	16.0219	406.6512	-23.7015	148.6303	10.7397	292.981	-0.0592	0.0182	-0.0073	-0.0462	0.0165	0.9585
20.9227	-23.8473	454.8059	26.0408	-161.6626	-32.4723	432.8885	13.5615	373.1183	-21.634	136.1105	10.2834	268.534	-0.0592	0.0182	-0.0073	-0.0462	0.0165	0.9585
20.9425	-22.7783	472.3132	26.8004	-167.5448	-32.8999	448.8772	11.2799	342.6785	-19.4437	124.8543	9.6663	246.2926	-0.0592	0.0182	-0.0073	-0.0462	0.0165	0.9585
20.9623	-21.2748	485.2501	27.0159	-171.7058	-32.7279	460.7886	9.2642	316.6576	-17.2787	115.2973	8.9563	227.1887	-0.0592	0.0182	-0.0073	-0.0462	0.0165	0.9585
20.9821	-19.7723	494.2424	26.6791	-174.366	-32.0912	469.3639	7.612	295.6066	-15.2715	107.5915	8.2082	211.6092	-0.0592	0.0182	-0.0073	-0.0462	0.0165	0.9585
21.0019	-18.5407	499.884	25.8923	-175.7394	-31.1562	475.2068	6.4032	279.0175	-13.5253	101.5107	7.4636	199.1982	-0.0592	0.0182	-0.0073	-0.0462	0.0165	0.9585
21.0216	-17.6668	502.8603	24.8257	-176.084	-30.0846	478.8863	5.6482	265.3342	-12.0908	96.4615	6.7538	188.8619	-0.0592	0.0182	-0.0073	-0.0462	0.0165	0.9585
21.0414	-17.077	504.1709	23.6806	-175.7855	-29.012	481.1634	5.2577	252.4126	-10.9449	91.6565	6.0959	179.0975	-0.0592	0.0182	-0.0073	-0.0462	0.0165	0.9585
21.0612	-16.5921	505.1939	22.6622	-175.3759	-28.046	483.0768	5.0749	238.272	-9.9968	86.385	5.4899	168.5291	-0.0592	0.0182	-0.0073	-0.0462	0.0165	0.9585
21.081	-15.9987	507.5515	21.9279	-175.4766	-27.2469	485.8654	4.953	221.704	-9.1319	80.229	4.918	156.3303	-0.0592	0.0182	-0.0073	-0.0462	0.0165	0.9585
21.1008	-15.1276	512.8564	21.5919	-176.6947	-26.6583	490.7951	4.8032	202.5245	-8.2735	73.145	4.3649	142.3896	-0.0592	0.0182	-0.0073	-0.0462	0.0165	0.9585
21.1206	-13.9174	522.4522	21.7683	-179.5173	-26.3644	498.9655	4.5924	181.4573	-7.423	65.415	3.8444	127.2213	-0.0592	0.0182	-0.0073	-0.0462	0.0165	0.9585
21.1404	-12.4399	537.2421	22.5733	-184.2482	-26.496	511.175	4.3132	159.7366	-6.6505	57.4958	3.4055	111.6789	-0.0592	0.0182	-0.0073	-0.0462	0.0165	0.9585
21.1601	-10.9002	557.5746	24.0928	-190.9703	-27.2001	527.8206	3.9569	138.6221	-6.0427	49.8418	3.1074	96.6309	-0.0592	0.0182	-0.0073	-0.0462	0.0165	0.9585
21.1799	-9.5856	583.1671	26.3751	-199.5319	-28.618	548.7866	3.5075	118.9815	-5.6393	42.7568	2.9787	82.6757	-0.0592	0.0182	-0.0073	-0.0462	0.0165	0.9585
21.1997	-8.7673	613.2191	29.4175	-209.5992	-30.8406	573.4994	2.9484	101.1257	-5.411	36.3413	3.0015	70.0251	-0.0592	0.0182	-0.0073	-0.0462	0.0165	0.9585
21.2195	-8.6235	646.6503	33.1448	-220.7558	-33.8618	601.1114	2.2589	84.9281	-5.2782	30.5376	3.1262	58.5954	-0.0592	0.0182	-0.0073	-0.0462	0.0165	0.9585
21.2393	-9.2168	682.2934	37.4074	-232.5787	-37.5707	630.651	1.4313	70.0549	-5.1331	25.2148	3.2821	48.1655	-0.0592	0.0182	-0.0073	-0.0462	0.0165	0.9585
21.2591	-10.4825	719.0241	41.9938	-244.683	-41.7543	661.1175	0.50187	56.1965	-4.8693	20.2537	3.3883	38.5274	-0.0592	0.0182	-0.0073	-0.0462	0.0165	0.9585
21.2789	-12.2539	755.7555	46.6644	-256.7115	-46.1376	691.4739	-0.42231	43.2551	-4.4101	15.6155	3.3606	29.6095	-0.0592	0.0182	-0.0073	-0.0462	0.0165	0.9585
21.2986	-14.2971	791.2657	51.1867	-268.2693	-50.4313	720.5357	-1.1824	31.4181	-3.7408	11.3677	3.1366	21.526	-0.0592	0.0182	-0.0073	-0.0462	0.0165	0.9585
21.3184	-16.3385	824.0467	55.3483	-278.8676	-54.3542	746.8733	-1.6118	21.0888	-2.9156	7.6558	2.6936	14.5271	-0.0592	0.0182	-0.0073	-0.0462	0.0165	0.9585
21.3382	-18.0862	852.2356	58.9694	-287.8977	-57.6515	768.7748	-1.6515	12.7156	-2.0475	4.6428	2.0877	8.8881	-0.0592	0.0182	-0.0073	-0.0462	0.0165	0.9585
21.358	-19.2564	873.7445	61.9011	-294.6725	-60.1083	784.3684	-1.44	6.5415	-1.267	2.4171	1.4576	4.7556	-0.0592	0.0182	-0.0073	-0.0462	0.0165	0.9585
21.3778	-19.628	886.6433	64.0271	-298.5577	-61.5632	791.9683	-1.1239	2.4291	-0.64457	0.93168	0.90358	2.0291	-0.0592	0.0182	-0.0073	-0.0462	0.0165	0.9585
